# xmcd
#
# Track frame offsets: 
#        150
#        13547
#        27302
#        41135
#        53970
#        72465
#        87790
#        105812
#        120135
#        135447
#        149630
#        161925
#
# Disc length: 2327 seconds
#
# Revision: 0
# Processed by: cddbd v1.5.1PL0 Copyright (c) Steve Scherf et al.
# Submitted via: ExactAudioCopy v0.95b1
#
DISCID=9d09150c
DTITLE=Various Artist - Los Internacionales Rayos De Mexico
DYEAR=1900
DGENRE=Latin
TTITLE0=Julio Delgadillo - La Mujer Y La Hielera
TTITLE1=Carlos Guzman - Celda Obscura
TTITLE2=D.A.R. - Prietita Malora
TTITLE3=Mario Eloy - Con El Diablo Metido
TTITLE4=D.A.R. - Sufriendo Y Penando
TTITLE5=Daniel Garces - Mujer Paseada
TTITLE6=Santiago Bahena - Las Tres Reynas
TTITLE7=Jose E Avalos - El Fuereno
TTITLE8=Santiago Bahena - Los Dos De Michoacan
TTITLE9=D.A.R. - Amorcito Consentido
TTITLE10=D.A.R. - No Le Hace Que Seas Casada
TTITLE11=Santiago Bahena - La Pareja Del Diablo
EXTD=
EXTT0=
EXTT1=
EXTT2=
EXTT3=
EXTT4=
EXTT5=
EXTT6=
EXTT7=
EXTT8=
EXTT9=
EXTT10=
EXTT11=
PLAYORDER=
